<svg width="181" height="204" viewBox="0 0 181 204" fill="none" xmlns="http://www.w3.org/2000/svg">
<mask id="path-1-outside-1_110_95" maskUnits="userSpaceOnUse" x="-0.158508" y="-0.158508" width="181" height="205" fill="black">
<rect fill="white" x="-0.158508" y="-0.158508" width="181" height="205"/>
<path d="M101.939 7.84149C127.182 7.84149 150.103 17.7823 167.003 33.9616L147.299 53.5954C135.362 42.7739 119.433 36.1657 101.939 36.1657C64.918 36.1659 34.9069 65.7548 34.9069 102.255C34.9072 138.754 64.9182 168.342 101.939 168.342C121.049 168.342 138.291 160.458 150.502 147.809L169.841 167.081C152.716 184.927 128.626 196.038 101.939 196.038C49.9704 196.038 7.84149 153.908 7.84149 101.939C7.84163 49.9705 49.9705 7.84163 101.939 7.84149Z"/>
</mask>
<path d="M101.939 7.84149C127.182 7.84149 150.103 17.7823 167.003 33.9616L147.299 53.5954C135.362 42.7739 119.433 36.1657 101.939 36.1657C64.918 36.1659 34.9069 65.7548 34.9069 102.255C34.9072 138.754 64.9182 168.342 101.939 168.342C121.049 168.342 138.291 160.458 150.502 147.809L169.841 167.081C152.716 184.927 128.626 196.038 101.939 196.038C49.9704 196.038 7.84149 153.908 7.84149 101.939C7.84163 49.9705 49.9705 7.84163 101.939 7.84149Z" fill="#1F3A5F"/>
<path d="M101.939 7.84149V-9.53674e-07H101.939L101.939 7.84149ZM167.003 33.9616L172.537 39.5163L178.225 33.8495L172.425 28.2974L167.003 33.9616ZM147.299 53.5954L142.032 59.4049L147.554 64.4109L152.833 59.1501L147.299 53.5954ZM101.939 36.1657V28.3242L101.939 28.3242L101.939 36.1657ZM34.9069 102.255H27.0654L27.0654 102.255L34.9069 102.255ZM101.939 168.342L101.939 176.184H101.939V168.342ZM150.502 147.809L156.037 142.255L150.393 136.631L144.86 142.363L150.502 147.809ZM169.841 167.081L175.499 172.51L180.827 166.958L175.376 161.526L169.841 167.081ZM101.939 196.038L101.939 203.879H101.939V196.038ZM7.84149 101.939L-9.53674e-07 101.939V101.939H7.84149ZM101.939 7.84149V15.683C125.082 15.683 146.081 24.7875 161.58 39.6258L167.003 33.9616L172.425 28.2974C154.125 10.7771 129.283 -9.53674e-07 101.939 -9.53674e-07V7.84149ZM167.003 33.9616L161.468 28.4069L141.764 48.0407L147.299 53.5954L152.833 59.1501L172.537 39.5163L167.003 33.9616ZM147.299 53.5954L152.565 47.7859C139.233 35.6988 121.442 28.3242 101.939 28.3242V36.1657V44.0072C117.425 44.0072 131.491 49.8489 142.032 59.4049L147.299 53.5954ZM101.939 36.1657L101.939 28.3242C60.6925 28.3244 27.0654 61.3197 27.0654 102.255H34.9069H42.7484C42.7484 70.19 69.1436 44.0074 101.939 44.0072L101.939 36.1657ZM34.9069 102.255L27.0654 102.255C27.0657 143.189 60.6927 176.184 101.939 176.184L101.939 168.342L101.939 160.501C69.1437 160.501 42.7486 134.319 42.7484 102.255L34.9069 102.255ZM101.939 168.342V176.184C123.246 176.184 142.503 167.384 156.143 153.256L150.502 147.809L144.86 142.363C134.078 153.532 118.852 160.501 101.939 160.501V168.342ZM150.502 147.809L144.967 153.364L164.307 172.635L169.841 167.081L175.376 161.526L156.037 142.255L150.502 147.809ZM169.841 167.081L164.184 161.651C148.476 178.021 126.402 188.196 101.939 188.196V196.038V203.879C130.849 203.879 156.957 191.833 175.499 172.51L169.841 167.081ZM101.939 196.038L101.939 188.196C54.3013 188.196 15.683 149.577 15.683 101.939H7.84149H-9.53674e-07C-9.53674e-07 158.239 45.6396 203.879 101.939 203.879L101.939 196.038ZM7.84149 101.939L15.683 101.939C15.6831 54.3013 54.3013 15.6831 101.939 15.683L101.939 7.84149L101.939 -9.53674e-07C45.6398 0.000151157 0.000151157 45.6398 -9.53674e-07 101.939L7.84149 101.939Z" fill="#1F3A5F" mask="url(#path-1-outside-1_110_95)"/>
<line x1="56.2833" y1="138.778" x2="99.0837" y2="106.048" stroke="#4A90A4" stroke-width="6.29417"/>
<line x1="99.0037" y1="102.124" x2="116.48" y2="123.023" stroke="#4A90A4" stroke-width="6.29417"/>
<path d="M165.786 81.1456C165.948 79.415 164.675 77.8815 162.945 77.7204L134.743 75.0954C133.012 74.9343 131.479 76.2067 131.317 77.9373C131.156 79.6679 132.429 81.2014 134.159 81.3625L159.228 83.6958L156.894 108.764C156.733 110.495 158.006 112.028 159.736 112.189C161.467 112.35 163 111.078 163.161 109.347L165.786 81.1456ZM114.213 121.044L116.223 123.466L164.662 83.2759L162.653 80.8539L160.643 78.4319L112.204 118.622L114.213 121.044Z" fill="white"/>
<path d="M165.786 81.1456C165.948 79.415 164.675 77.8815 162.945 77.7204L134.743 75.0954C133.012 74.9343 131.479 76.2067 131.317 77.9373C131.156 79.6679 132.429 81.2014 134.159 81.3625L159.228 83.6958L156.894 108.764C156.733 110.495 158.006 112.028 159.736 112.189C161.467 112.35 163 111.078 163.161 109.347L165.786 81.1456ZM114.213 121.044L116.223 123.466L164.662 83.2759L162.653 80.8539L160.643 78.4319L112.204 118.622L114.213 121.044Z" fill="#4A90A4"/>
</svg>
